<svg width="33" height="34" viewBox="0 0 33 34" fill="none" xmlns="http://www.w3.org/2000/svg">
<path d="M32.9825 17.3181C32.9825 15.9251 32.8702 14.9086 32.6273 13.8545H16.8286V20.1416H26.1021C25.9152 21.7041 24.9056 24.0571 22.6619 25.6382L22.6305 25.8487L27.6257 29.7448L27.9718 29.7796C31.1502 26.8242 32.9825 22.4758 32.9825 17.3181Z" fill="#4285F4"/>
<path d="M16.8287 33.8832C21.3719 33.8832 25.186 32.3772 27.9719 29.7796L22.662 25.6382C21.2411 26.6359 19.334 27.3324 16.8287 27.3324C12.3789 27.3324 8.60219 24.3771 7.2559 20.2923L7.05857 20.3092L1.86444 24.3563L1.79651 24.5465C4.56359 30.0807 10.2474 33.8832 16.8287 33.8832Z" fill="#34A853"/>
<path d="M7.25593 20.2923C6.9007 19.2381 6.69512 18.1086 6.69512 16.9416C6.69512 15.7744 6.9007 14.645 7.23724 13.5909L7.22783 13.3664L1.96862 9.25421L1.79654 9.33662C0.656099 11.6332 0.00170898 14.2121 0.00170898 16.9416C0.00170898 19.6711 0.656099 22.2499 1.79654 24.5464L7.25593 20.2923Z" fill="#FBBC05"/>
<path d="M16.8287 6.55071C19.9883 6.55071 22.1197 7.92486 23.335 9.0732L28.084 4.40482C25.1674 1.67534 21.3719 0 16.8287 0C10.2474 0 4.56358 3.80242 1.79651 9.33663L7.23721 13.5909C8.60219 9.50612 12.3789 6.55071 16.8287 6.55071Z" fill="#EB4335"/>
</svg>
