<svg width="36" height="36" viewBox="0 0 36 36" fill="none" xmlns="http://www.w3.org/2000/svg">
<path d="M0 2.64043C0 1.22271 1.19166 0.0719604 2.66062 0.0719604H33.3394C34.8089 0.0719604 36 1.22271 36 2.64043V33.3599C36 34.778 34.8089 35.928 33.3394 35.928H2.66062C1.1918 35.928 0 34.7782 0 33.3603V2.64001V2.64043Z" fill="#006699"/>
<path d="M10.9401 30.0787V13.9362H5.553V30.0787H10.9406H10.9401ZM8.24766 11.7326C10.1258 11.7326 11.2951 10.493 11.2951 8.94395C11.26 7.35956 10.1258 6.1546 8.28338 6.1546C6.43965 6.1546 5.23547 7.35956 5.23547 8.94381C5.23547 10.4929 6.40435 11.7325 8.21236 11.7325H8.24724L8.24766 11.7326ZM13.9219 30.0787H19.3085V21.065C19.3085 20.5831 19.3437 20.1001 19.486 19.7559C19.8752 18.7916 20.7616 17.7934 22.2501 17.7934C24.1989 17.7934 24.9789 19.2736 24.9789 21.4438V30.0787H30.3654V20.8231C30.3654 15.865 27.7082 13.5577 24.164 13.5577C21.2583 13.5577 19.9821 15.1753 19.2731 16.2771H19.3089V13.9368H13.9222C13.9925 15.4511 13.9217 30.0792 13.9217 30.0792L13.9219 30.0787Z" fill="white"/>
</svg>
