<svg width="76" height="76" viewBox="0 0 76 76" fill="none" xmlns="http://www.w3.org/2000/svg">
<g clip-path="url(#clip0)">
<path fill-rule="evenodd" clip-rule="evenodd" d="M27.8648 0C23.6636 0.00309888 20.2635 3.40567 20.2666 7.59845C20.2635 11.7912 23.6667 15.1938 27.8679 15.1969H35.4691V7.60155C35.4722 3.40877 32.0691 0.00619776 27.8648 0C27.8679 0 27.8679 0 27.8648 0V0ZM27.8648 20.2667H7.60101C3.39983 20.2698 -0.00334074 23.6723 -0.000235655 27.8651C-0.00644582 32.0579 3.39672 35.4605 7.5979 35.4667H27.8648C32.0659 35.4636 35.4691 32.061 35.466 27.8682C35.4691 23.6723 32.0659 20.2698 27.8648 20.2667Z" fill="#36C5F0"/>
<path fill-rule="evenodd" clip-rule="evenodd" d="M76 27.8651C76.0031 23.6723 72.5999 20.2698 68.3987 20.2667C64.1975 20.2698 60.7944 23.6723 60.7975 27.8651V35.4667H68.3987C72.5999 35.4636 76.0031 32.061 76 27.8651ZM55.7331 27.8651V7.59845C55.7362 3.40877 52.3361 0.00619776 48.1349 0C43.9338 0.00309888 40.5306 3.40567 40.5337 7.59845V27.8651C40.5275 32.0579 43.9307 35.4605 48.1318 35.4667C52.333 35.4636 55.7362 32.061 55.7331 27.8651Z" fill="#2EB67D"/>
<path fill-rule="evenodd" clip-rule="evenodd" d="M48.132 76.0001C52.3332 75.997 55.7364 72.5944 55.7332 68.4016C55.7364 64.2088 52.3332 60.8062 48.132 60.8031H40.5308V68.4016C40.5277 72.5913 43.9308 75.9939 48.132 76.0001ZM48.132 55.7303H68.3989C72.6001 55.7272 76.0032 52.3246 76.0001 48.1318C76.0063 43.939 72.6032 40.5365 68.402 40.5303H48.1351C43.9339 40.5334 40.5308 43.9359 40.5339 48.1287C40.5308 52.3246 43.9308 55.7272 48.132 55.7303Z" fill="#ECB22E"/>
<path fill-rule="evenodd" clip-rule="evenodd" d="M2.12314e-06 48.1319C-0.00310296 52.3247 3.40007 55.7273 7.60124 55.7304C11.8024 55.7273 15.2056 52.3247 15.2025 48.1319V40.5334H7.60124C3.40007 40.5365 -0.00310296 43.9391 2.12314e-06 48.1319ZM20.2669 48.1319V68.3986C20.2607 72.5914 23.6638 75.9939 27.865 76.0001C32.0662 75.997 35.4694 72.5945 35.4663 68.4017V48.1381C35.4725 43.9453 32.0693 40.5427 27.8681 40.5365C23.6638 40.5365 20.2638 43.9391 20.2669 48.1319C20.2669 48.1319 20.2669 48.135 20.2669 48.1319Z" fill="#E01E5A"/>
</g>
<defs>
<clipPath id="clip0">
<rect width="76" height="76" fill="white"/>
</clipPath>
</defs>
</svg>
